<?xml version="1.0" encoding="UTF-8"?>
<svg xmlns="http://www.w3.org/2000/svg" viewBox="0 0 45 45">
  <g fill="#000" stroke="#000" stroke-width="1.5" stroke-linecap="round" stroke-linejoin="round">
    <!-- Base -->
    <path d="M 9,36 C 12.39,35.03 19.11,36.43 22.5,34 C 25.89,36.43 32.61,35.03 36,36 C 36,36 37.65,36.54 39,38 C 38.32,38.97 37.35,38.99 36,38.5 C 32.61,37.53 25.89,38.96 22.5,37.5 C 19.11,38.96 12.39,37.53 9,38.5 C 7.646,38.99 6.677,38.97 6,38 C 7.354,36.06 9,36 9,36 Z"/>
    <!-- Body -->
    <path d="M 15,32 C 17.5,34.5 27.5,34.5 30,32 C 30.5,30.5 30,30 30,30 C 30,27.5 27.5,26 27.5,26 L 27.5,24.5 L 22.5,26.5 L 17.5,24.5 L 17.5,26 C 17.5,26 15,27.5 15,30 C 15,30 14.5,30.5 15,32 Z"/>
    <!-- Crown spikes -->
    <path d="M 25,18 A 2.5,2.5 0 1 1 20,18 L 20,14 L 23,17 L 22.5,9.5 L 22,17 L 25,14 Z"/>
    <path d="M 17.5,24.5 L 14,20 L 10,24 L 8.5,13.5 L 12.85,18.25 L 15.36,14.27 L 17.5,24.5 Z"/>
    <path d="M 27.5,24.5 L 31,20 L 35,24 L 36.5,13.5 L 32.15,18.25 L 29.64,14.27 L 27.5,24.5 Z"/>
    <!-- Crown dots -->
    <circle cx="8.5" cy="13.5" r="2" fill="#fff"/>
    <circle cx="15" cy="11" r="2" fill="#fff"/>
    <circle cx="22.5" cy="8" r="2" fill="#fff"/>
    <circle cx="30" cy="11" r="2" fill="#fff"/>
    <circle cx="36.5" cy="13.5" r="2" fill="#fff"/>
    <!-- Lines -->
    <path d="M 17.5,26 L 27.5,26 M 15,30 L 30,30" fill="none" stroke="#fff"/>
  </g>
</svg>
