<?xml version="1.0" encoding="UTF-8"?>
<svg xmlns="http://www.w3.org/2000/svg" viewBox="0 0 45 45">
  <path d="M 22.5,9 C 19.79,9 17.609,11.18 17.609,13.89 C 17.609,15.55 18.472,17.01 19.766,17.87 C 17.09,19.34 15.25,22.18 15.25,25.5 C 15.25,27.13 15.74,28.64 16.58,29.91 L 10,29.91 C 10,29.91 8.5,32 8.5,33.5 C 8.5,35 10,36.5 10,36.5 L 35,36.5 C 35,36.5 36.5,35 36.5,33.5 C 36.5,32 35,29.91 35,29.91 L 28.42,29.91 C 29.26,28.64 29.75,27.13 29.75,25.5 C 29.75,22.18 27.91,19.34 25.234,17.87 C 26.528,17.01 27.391,15.55 27.391,13.89 C 27.391,11.18 25.21,9 22.5,9 Z"
        fill="#fff" stroke="#000" stroke-width="1.5" stroke-linecap="round"/>
</svg>
